<svg width="273" height="60" viewBox="0 0 273 60" fill="none" xmlns="http://www.w3.org/2000/svg">
<path d="M24.5833 30C24.5833 31.1917 23.6083 32.1667 22.4166 32.1667C21.225 32.1667 20.25 31.1917 20.25 30C20.25 28.8083 21.225 27.8333 22.4166 27.8333C23.6083 27.8333 24.5833 28.8083 24.5833 30ZM33.7916 25.6667C34.9833 25.6667 35.9583 24.6917 35.9583 23.5C35.9583 22.3083 34.9833 21.3333 33.7916 21.3333C32.6 21.3333 31.625 22.3083 31.625 23.5C31.625 24.6917 32.6 25.6667 33.7916 25.6667ZM26.2083 25.6667C27.4 25.6667 28.375 24.6917 28.375 23.5C28.375 22.3083 27.4 21.3333 26.2083 21.3333C25.0166 21.3333 24.0416 22.3083 24.0416 23.5C24.0416 24.6917 25.0166 25.6667 26.2083 25.6667ZM26.2083 34.3333C25.0166 34.3333 24.0416 35.3083 24.0416 36.5C24.0416 37.6917 25.0166 38.6667 26.2083 38.6667C27.4 38.6667 28.375 37.6917 28.375 36.5C28.375 35.3083 27.4 34.3333 26.2083 34.3333ZM51.6666 28.375V31.625C51.6666 32.5133 50.93 33.25 50.0416 33.25C49.1533 33.25 48.4166 32.5133 48.4166 31.625H45.08C44.7676 34.5235 43.6239 37.2699 41.7866 39.5333L44.1483 41.895L44.17 41.8733C44.7983 41.245 45.8383 41.245 46.4666 41.8733C47.095 42.5017 47.095 43.5417 46.4666 44.17L44.17 46.4667C43.5416 47.095 42.5016 47.095 41.8733 46.4667C41.5737 46.1652 41.4037 45.7586 41.3997 45.3336C41.3956 44.9086 41.5578 44.4988 41.8516 44.1917L39.49 41.83C37.2277 43.6517 34.4908 44.7871 31.6033 45.1017V48.4383H31.625C32.5133 48.4383 33.25 49.175 33.25 50.0633C33.25 50.9517 32.5133 51.6883 31.625 51.6883H28.375C27.4866 51.6883 26.75 50.9517 26.75 50.0633C26.75 49.175 27.465 48.46 28.3533 48.4383V45.08C25.4713 44.7694 22.7403 43.6334 20.4883 41.8083L18.1266 44.17L18.1483 44.1917C18.7766 44.82 18.7766 45.86 18.1483 46.4883C17.52 47.1167 16.48 47.1167 15.8516 46.4883L13.5333 44.17C13.2311 43.8642 13.0616 43.4516 13.0616 43.0217C13.0616 42.5917 13.2311 42.1791 13.5333 41.8733C14.1616 41.245 15.18 41.245 15.8083 41.8517L18.17 39.49C16.3465 37.2392 15.2173 34.5065 14.92 31.625H11.5833C11.5833 32.5133 10.8466 33.25 9.95831 33.25C9.06998 33.25 8.33331 32.5133 8.33331 31.625V28.375C8.33331 27.4867 9.06998 26.75 9.95831 26.75C10.8466 26.75 11.5833 27.4867 11.5833 28.375H14.92C15.245 25.4067 16.415 22.72 18.17 20.51L15.8083 18.1483C15.18 18.755 14.1616 18.755 13.5333 18.1267C13.2311 17.8209 13.0616 17.4083 13.0616 16.9783C13.0616 16.5484 13.2311 16.1358 13.5333 15.83L15.83 13.5333C16.4583 12.905 17.4983 12.905 18.1266 13.5333C18.755 14.1617 18.755 15.2017 18.1266 15.83L18.105 15.8517L20.4666 18.2133C22.7208 16.3919 25.4507 15.2564 28.3316 14.9417V11.5833C27.905 11.576 27.4982 11.4017 27.1984 11.098C26.8987 10.7942 26.7299 10.3851 26.7283 9.95834C26.7395 9.52715 26.9172 9.11704 27.2242 8.81407C27.5313 8.51109 27.9437 8.3388 28.375 8.33334H31.625C32.5133 8.33334 33.25 9.07001 33.25 9.95834C33.25 10.8467 32.5133 11.5833 31.625 11.5833H31.6033V14.92C34.5716 15.2233 37.28 16.415 39.49 18.1917L41.8516 15.83C41.7036 15.6793 41.5866 15.5008 41.5076 15.3049C41.4285 15.1089 41.3889 14.8993 41.3909 14.688C41.3929 14.4767 41.4365 14.2679 41.5193 14.0735C41.6021 13.8791 41.7224 13.7029 41.8733 13.555C42.5016 12.9267 43.5416 12.9267 44.17 13.555L46.4666 15.8517C47.095 16.48 47.095 17.52 46.4666 18.1483C45.8383 18.7767 44.7983 18.7767 44.17 18.1483L44.1483 18.1267L41.7866 20.4667C43.6189 22.7331 44.762 25.478 45.08 28.375H48.4166C48.4166 27.4867 49.1533 26.75 50.0416 26.75C50.93 26.75 51.6666 27.4867 51.6666 28.375V28.375ZM40.8333 30C40.8333 24.02 35.98 19.1667 30 19.1667C24.02 19.1667 19.1666 24.02 19.1666 30C19.1666 35.98 24.02 40.8333 30 40.8333C35.98 40.8333 40.8333 35.98 40.8333 30ZM30 27.8333C28.8083 27.8333 27.8333 28.8083 27.8333 30C27.8333 31.1917 28.8083 32.1667 30 32.1667C31.1916 32.1667 32.1666 31.1917 32.1666 30C32.1666 28.8083 31.1916 27.8333 30 27.8333ZM37.5833 27.8333C36.3916 27.8333 35.4166 28.8083 35.4166 30C35.4166 31.1917 36.3916 32.1667 37.5833 32.1667C38.775 32.1667 39.75 31.1917 39.75 30C39.75 28.8083 38.775 27.8333 37.5833 27.8333ZM33.7916 34.3333C32.6 34.3333 31.625 35.3083 31.625 36.5C31.625 37.6917 32.6 38.6667 33.7916 38.6667C34.9833 38.6667 35.9583 37.6917 35.9583 36.5C35.9583 35.3083 34.9833 34.3333 33.7916 34.3333Z" fill="black"/>
<path d="M74.2383 32.6797C74.043 34.4766 73.3984 35.8516 72.3047 36.8047C71.2188 37.7578 69.7695 38.2344 67.957 38.2344C66.6914 38.2344 65.5703 37.918 64.5938 37.2852C63.625 36.6523 62.875 35.7578 62.3438 34.6016C61.8125 33.4375 61.543 32.1094 61.5352 30.6172V28.4023C61.5352 26.8867 61.8008 25.543 62.332 24.3711C62.8633 23.1992 63.625 22.2969 64.6172 21.6641C65.6172 21.0234 66.7656 20.7031 68.0625 20.7031C69.8906 20.7031 71.332 21.1992 72.3867 22.1914C73.4492 23.1758 74.0664 24.5391 74.2383 26.2812H72.7852C72.4258 23.3828 70.8516 21.9336 68.0625 21.9336C66.5156 21.9336 65.2812 22.5117 64.3594 23.668C63.4453 24.8242 62.9883 26.4219 62.9883 28.4609V30.5469C62.9883 32.5156 63.4336 34.0859 64.3242 35.2578C65.2227 36.4297 66.4336 37.0156 67.957 37.0156C69.4648 37.0156 70.6016 36.6562 71.3672 35.9375C72.1328 35.2109 72.6055 34.125 72.7852 32.6797H74.2383ZM90.3516 30.3945C90.3516 31.9648 90.0781 33.3438 89.5312 34.5312C88.9922 35.7188 88.2188 36.6328 87.2109 37.2734C86.2031 37.9141 85.0391 38.2344 83.7188 38.2344C81.7266 38.2344 80.1172 37.5234 78.8906 36.1016C77.6641 34.6719 77.0508 32.7461 77.0508 30.3242V28.5664C77.0508 27.0117 77.3242 25.6367 77.8711 24.4414C78.4258 23.2383 79.207 22.3164 80.2148 21.6758C81.2227 21.0273 82.3828 20.7031 83.6953 20.7031C85.0078 20.7031 86.1641 21.0195 87.1641 21.6523C88.1719 22.2852 88.9492 23.1797 89.4961 24.3359C90.043 25.4922 90.3281 26.832 90.3516 28.3555V30.3945ZM88.9102 28.543C88.9102 26.4883 88.4453 24.8789 87.5156 23.7148C86.5859 22.5508 85.3125 21.9688 83.6953 21.9688C82.1094 21.9688 80.8438 22.5547 79.8984 23.7266C78.9609 24.8906 78.4922 26.5195 78.4922 28.6133V30.3945C78.4922 32.418 78.9609 34.0234 79.8984 35.2109C80.8359 36.3906 82.1094 36.9805 83.7188 36.9805C85.3516 36.9805 86.625 36.3984 87.5391 35.2344C88.4531 34.0625 88.9102 32.4336 88.9102 30.3477V28.543ZM98.8711 35.8906L98.9648 36.2539L99.0703 35.8906L104.438 20.9375H106.02L99.668 38H98.2852L91.9336 20.9375H93.5039L98.8711 35.8906ZM110.297 38H108.855V20.9375H110.297V38ZM114.938 38V20.9375H119.707C121.105 20.9375 122.359 21.2578 123.469 21.8984C124.578 22.5312 125.441 23.4414 126.059 24.6289C126.684 25.8164 126.996 27.168 126.996 28.6836V30.2539C126.996 31.7773 126.688 33.1289 126.07 34.3086C125.453 35.4883 124.582 36.3984 123.457 37.0391C122.34 37.6797 121.055 38 119.602 38H114.938ZM116.379 22.168V36.7812H119.613C121.41 36.7812 122.852 36.1875 123.938 35C125.023 33.8047 125.566 32.1914 125.566 30.1602V28.6602C125.566 26.6992 125.031 25.1289 123.961 23.9492C122.891 22.7695 121.48 22.1758 119.73 22.168H116.379ZM142.477 38H141.07V22.625L136.43 24.3477V23.0352L142.242 20.8789H142.477V38ZM158.016 30.1016C157.516 30.8359 156.895 31.4062 156.152 31.8125C155.41 32.2109 154.605 32.4102 153.738 32.4102C152.77 32.4102 151.914 32.1602 151.172 31.6602C150.43 31.1602 149.855 30.4688 149.449 29.5859C149.043 28.7031 148.84 27.7383 148.84 26.6914C148.84 25.5664 149.055 24.543 149.484 23.6211C149.922 22.6992 150.527 21.9844 151.301 21.4766C152.082 20.9609 152.98 20.7031 153.996 20.7031C155.707 20.7031 157.039 21.3047 157.992 22.5078C158.945 23.7031 159.422 25.4023 159.422 27.6055V28.8711C159.422 31.9492 158.766 34.2617 157.453 35.8086C156.141 37.3555 154.137 38.1289 151.441 38.1289H151.184L151.195 36.9102H151.688C153.727 36.8789 155.277 36.3008 156.34 35.1758C157.402 34.0508 157.961 32.3594 158.016 30.1016ZM153.914 31.2031C154.852 31.2031 155.691 30.9258 156.434 30.3711C157.184 29.8086 157.715 29.082 158.027 28.1914V27.3828C158.027 25.6484 157.664 24.3047 156.938 23.3516C156.219 22.3906 155.246 21.9102 154.02 21.9102C152.91 21.9102 152 22.3594 151.289 23.2578C150.578 24.1484 150.223 25.2734 150.223 26.6328C150.223 27.9375 150.562 29.0273 151.242 29.9023C151.93 30.7695 152.82 31.2031 153.914 31.2031ZM180.715 20.9375V32.5859C180.707 33.7344 180.453 34.7344 179.953 35.5859C179.453 36.4375 178.746 37.0938 177.832 37.5547C176.926 38.0078 175.883 38.2344 174.703 38.2344C172.906 38.2344 171.465 37.7461 170.379 36.7695C169.301 35.7852 168.742 34.4258 168.703 32.6914V20.9375H170.133V32.4805C170.133 33.918 170.543 35.0352 171.363 35.832C172.184 36.6211 173.297 37.0156 174.703 37.0156C176.109 37.0156 177.219 36.6172 178.031 35.8203C178.852 35.0234 179.262 33.9141 179.262 32.4922V20.9375H180.715ZM186.176 31.0508V38H184.734V20.9375H190.547C192.32 20.9375 193.719 21.3906 194.742 22.2969C195.773 23.2031 196.289 24.4492 196.289 26.0352C196.289 27.6367 195.793 28.875 194.801 29.75C193.816 30.6172 192.387 31.0508 190.512 31.0508H186.176ZM186.176 29.832H190.547C191.945 29.832 193.012 29.5 193.746 28.8359C194.48 28.1719 194.848 27.2461 194.848 26.0586C194.848 24.8789 194.48 23.9414 193.746 23.2461C193.02 22.543 191.984 22.1836 190.641 22.168H186.176V29.832ZM199.523 38V20.9375H204.293C205.691 20.9375 206.945 21.2578 208.055 21.8984C209.164 22.5312 210.027 23.4414 210.645 24.6289C211.27 25.8164 211.582 27.168 211.582 28.6836V30.2539C211.582 31.7773 211.273 33.1289 210.656 34.3086C210.039 35.4883 209.168 36.3984 208.043 37.0391C206.926 37.6797 205.641 38 204.188 38H199.523ZM200.965 22.168V36.7812H204.199C205.996 36.7812 207.438 36.1875 208.523 35C209.609 33.8047 210.152 32.1914 210.152 30.1602V28.6602C210.152 26.6992 209.617 25.1289 208.547 23.9492C207.477 22.7695 206.066 22.1758 204.316 22.168H200.965ZM224.203 33.2188H216.457L214.699 38H213.188L219.645 20.9375H221.016L227.473 38H225.973L224.203 33.2188ZM216.902 31.9883H223.746L220.324 22.6953L216.902 31.9883ZM240.047 22.168H234.199V38H232.758V22.168H226.922V20.9375H240.047V22.168ZM252.234 29.8203H244.254V36.7812H253.43V38H242.812V20.9375H253.371V22.168H244.254V28.6016H252.234V29.8203ZM266.133 33.8047C266.133 32.8594 265.801 32.1133 265.137 31.5664C264.473 31.0117 263.258 30.4883 261.492 29.9961C259.727 29.4961 258.438 28.9531 257.625 28.3672C256.469 27.5391 255.891 26.4531 255.891 25.1094C255.891 23.8047 256.426 22.7461 257.496 21.9336C258.574 21.1133 259.949 20.7031 261.621 20.7031C262.754 20.7031 263.766 20.9219 264.656 21.3594C265.555 21.7969 266.25 22.4062 266.742 23.1875C267.234 23.9688 267.48 24.8398 267.48 25.8008H266.027C266.027 24.6367 265.629 23.7031 264.832 23C264.035 22.2891 262.965 21.9336 261.621 21.9336C260.316 21.9336 259.277 22.2266 258.504 22.8125C257.73 23.3906 257.344 24.1484 257.344 25.0859C257.344 25.9531 257.691 26.6602 258.387 27.207C259.082 27.7539 260.195 28.2383 261.727 28.6602C263.258 29.0742 264.418 29.5078 265.207 29.9609C265.996 30.4062 266.59 30.9414 266.988 31.5664C267.387 32.1914 267.586 32.9297 267.586 33.7812C267.586 35.125 267.047 36.2031 265.969 37.0156C264.898 37.8281 263.484 38.2344 261.727 38.2344C260.523 38.2344 259.418 38.0195 258.41 37.5898C257.41 37.1602 256.648 36.5586 256.125 35.7852C255.609 35.0117 255.352 34.125 255.352 33.125H256.793C256.793 34.3281 257.242 35.2773 258.141 35.9727C259.039 36.668 260.234 37.0156 261.727 37.0156C263.055 37.0156 264.121 36.7227 264.926 36.1367C265.73 35.5508 266.133 34.7734 266.133 33.8047Z" fill="black"/>
</svg>
